solid UruPrinter 3d
facet normal 1.7559860662979488e-13 -1.0 -3.133296091719925e-14
  outer loop
    vertex 176.6985339594646 627.1790725862634 342.5408416135411
    vertex 155.84853395946462 627.1790725862602 334.54084161354086
    vertex 176.6985339594646 627.1790725862643 322.5408416135411
  endloop
endfacet
facet normal 1.7559860662979488e-13 -1.0 -3.133296091719925e-14
  outer loop
    vertex 155.84853395946462 627.1790725862602 334.54084161354086
    vertex 176.6985339594646 627.1790725862634 342.5408416135411
    vertex 92.99853395946471 627.1790725862485 342.5408416135411
  endloop
endfacet
facet normal 1.7559860662979488e-13 -1.0 -3.133296091719925e-14
  outer loop
    vertex 155.84853395946462 627.1790725862602 334.54084161354086
    vertex 92.99853395946471 627.1790725862485 342.5408416135411
    vertex 113.84853395946462 627.1790725862543 334.54084161354086
  endloop
endfacet
facet normal 1.7559860662979488e-13 -1.0 -3.133296091719925e-14
  outer loop
    vertex 113.84853395946462 627.1790725862543 334.54084161354086
    vertex 92.99853395946471 627.1790725862493 322.5408416135411
    vertex 113.8485339594648 627.179072586253 322.5408416135411
  endloop
endfacet
facet normal 1.7559860662979488e-13 -1.0 -3.133296091719925e-14
  outer loop
    vertex 92.99853395946471 627.1790725862493 322.5408416135411
    vertex 113.84853395946462 627.1790725862543 334.54084161354086
    vertex 92.99853395946471 627.1790725862485 342.5408416135411
  endloop
endfacet
facet normal 1.7559860662979488e-13 -1.0 -3.133296091719925e-14
  outer loop
    vertex 155.8485339594646 627.1790725862608 322.5408416135411
    vertex 176.6985339594646 627.1790725862643 322.5408416135411
    vertex 155.84853395946462 627.1790725862602 334.54084161354086
  endloop
endfacet
facet normal -1.7559860662979488e-13 1.0 3.133296091719925e-14
  outer loop
    vertex 155.84853395946382 631.7790725862607 322.5408416135412
    vertex 176.69853395946384 631.7790725862634 342.5408416135412
    vertex 176.69853395946384 631.7790725862642 322.5408416135412
  endloop
endfacet
facet normal -1.7559860662979488e-13 1.0 3.133296091719925e-14
  outer loop
    vertex 176.69853395946384 631.7790725862634 342.5408416135412
    vertex 155.84853395946382 631.7790725862607 322.5408416135412
    vertex 155.84853395946385 631.7790725862601 334.5408416135409
  endloop
endfacet
facet normal -1.7559860662979488e-13 1.0 3.133296091719925e-14
  outer loop
    vertex 92.99853395946388 631.7790725862492 322.5408416135412
    vertex 113.84853395946384 631.7790725862543 334.5408416135409
    vertex 113.848533959464 631.7790725862529 322.5408416135412
  endloop
endfacet
facet normal -1.7559860662979488e-13 1.0 3.133296091719925e-14
  outer loop
    vertex 155.84853395946385 631.7790725862601 334.5408416135409
    vertex 92.99853395946388 631.7790725862484 342.5408416135412
    vertex 176.69853395946384 631.7790725862634 342.5408416135412
  endloop
endfacet
facet normal -1.7559860662979488e-13 1.0 3.133296091719925e-14
  outer loop
    vertex 92.99853395946388 631.7790725862484 342.5408416135412
    vertex 155.84853395946385 631.7790725862601 334.5408416135409
    vertex 113.84853395946384 631.7790725862543 334.5408416135409
  endloop
endfacet
facet normal -1.7559860662979488e-13 1.0 3.133296091719925e-14
  outer loop
    vertex 92.99853395946388 631.7790725862484 342.5408416135412
    vertex 113.84853395946384 631.7790725862543 334.5408416135409
    vertex 92.99853395946388 631.7790725862492 322.5408416135412
  endloop
endfacet
facet normal -1.0 -1.7559860662979488e-13 -7.130623465125133e-27
  outer loop
    vertex 92.99853395946388 631.7790725862484 342.5408416135412
    vertex 92.99853395946471 627.1790725862493 322.5408416135411
    vertex 92.99853395946471 627.1790725862485 342.5408416135411
  endloop
endfacet
facet normal -1.0 -1.7559860662979488e-13 -7.130623465125133e-27
  outer loop
    vertex 92.99853395946471 627.1790725862493 322.5408416135411
    vertex 92.99853395946388 631.7790725862484 342.5408416135412
    vertex 92.99853395946388 631.7790725862492 322.5408416135412
  endloop
endfacet
facet normal 5.607612456369145e-27 -3.133296091719925e-14 1.0
  outer loop
    vertex 92.99853395946471 627.1790725862485 342.5408416135411
    vertex 176.69853395946384 631.7790725862634 342.5408416135412
    vertex 92.99853395946388 631.7790725862484 342.5408416135412
  endloop
endfacet
facet normal 5.607612456369145e-27 -3.133296091719925e-14 1.0
  outer loop
    vertex 176.69853395946384 631.7790725862634 342.5408416135412
    vertex 92.99853395946471 627.1790725862485 342.5408416135411
    vertex 176.6985339594646 627.1790725862634 342.5408416135411
  endloop
endfacet
facet normal 1.0 1.7559860662979488e-13 7.130623465125133e-27
  outer loop
    vertex 176.6985339594646 627.1790725862643 322.5408416135411
    vertex 176.69853395946384 631.7790725862634 342.5408416135412
    vertex 176.6985339594646 627.1790725862634 342.5408416135411
  endloop
endfacet
facet normal 1.0 1.7559860662979488e-13 7.130623465125133e-27
  outer loop
    vertex 176.69853395946384 631.7790725862634 342.5408416135412
    vertex 176.6985339594646 627.1790725862643 322.5408416135411
    vertex 176.69853395946384 631.7790725862642 322.5408416135412
  endloop
endfacet
facet normal -5.288760608282269e-27 3.133296091719925e-14 -1.0
  outer loop
    vertex 176.69853395946384 631.7790725862642 322.5408416135412
    vertex 155.8485339594646 627.1790725862608 322.5408416135411
    vertex 155.84853395946382 631.7790725862607 322.5408416135412
  endloop
endfacet
facet normal -5.288760608282269e-27 3.133296091719925e-14 -1.0
  outer loop
    vertex 155.8485339594646 627.1790725862608 322.5408416135411
    vertex 176.69853395946384 631.7790725862642 322.5408416135412
    vertex 176.6985339594646 627.1790725862643 322.5408416135411
  endloop
endfacet
facet normal -1.0 -1.7559860662979496e-13 1.8799776550240475e-15
  outer loop
    vertex 155.84853395946385 631.7790725862601 334.5408416135409
    vertex 155.8485339594646 627.1790725862608 322.5408416135411
    vertex 155.84853395946462 627.1790725862602 334.54084161354086
  endloop
endfacet
facet normal -1.0 -1.7559860662979496e-13 1.8799776550240475e-15
  outer loop
    vertex 155.8485339594646 627.1790725862608 322.5408416135411
    vertex 155.84853395946385 631.7790725862601 334.5408416135409
    vertex 155.84853395946382 631.7790725862607 322.5408416135412
  endloop
endfacet
facet normal -4.443140093441536e-27 3.1332960917199254e-14 -1.0
  outer loop
    vertex 155.84853395946385 631.7790725862601 334.5408416135409
    vertex 113.84853395946462 627.1790725862543 334.54084161354086
    vertex 113.84853395946384 631.7790725862543 334.5408416135409
  endloop
endfacet
facet normal -4.443140093441536e-27 3.1332960917199254e-14 -1.0
  outer loop
    vertex 113.84853395946462 627.1790725862543 334.54084161354086
    vertex 155.84853395946385 631.7790725862601 334.5408416135409
    vertex 155.84853395946462 627.1790725862602 334.54084161354086
  endloop
endfacet
facet normal 1.0 1.755986066297944e-13 1.5039821240238598e-14
  outer loop
    vertex 113.8485339594648 627.179072586253 322.5408416135411
    vertex 113.84853395946384 631.7790725862543 334.5408416135409
    vertex 113.84853395946462 627.1790725862543 334.54084161354086
  endloop
endfacet
facet normal 1.0 1.755986066297944e-13 1.5039821240238598e-14
  outer loop
    vertex 113.84853395946384 631.7790725862543 334.5408416135409
    vertex 113.8485339594648 627.179072586253 322.5408416135411
    vertex 113.848533959464 631.7790725862529 322.5408416135412
  endloop
endfacet
facet normal -5.69558834738089e-27 3.133296091719925e-14 -1.0
  outer loop
    vertex 113.8485339594648 627.179072586253 322.5408416135411
    vertex 92.99853395946388 631.7790725862492 322.5408416135412
    vertex 113.848533959464 631.7790725862529 322.5408416135412
  endloop
endfacet
facet normal -5.69558834738089e-27 3.133296091719925e-14 -1.0
  outer loop
    vertex 92.99853395946388 631.7790725862492 322.5408416135412
    vertex 113.8485339594648 627.179072586253 322.5408416135411
    vertex 92.99853395946471 627.1790725862493 322.5408416135411
  endloop
endfacet
endsolid UruPrinter 3d
